<?xml version="1.0" encoding="iso-8859-1"?>
<!-- Generator: Adobe Illustrator 19.0.0, SVG Export Plug-In . SVG Version: 6.00 Build 0)  -->
<svg version="1.1" id="Layer_1" xmlns="http://www.w3.org/2000/svg" xmlns:xlink="http://www.w3.org/1999/xlink" x="0px" y="0px"
	 viewBox="0 0 512 512" style="enable-background:new 0 0 512 512;" xml:space="preserve">
<g>
	<g>
		<path style="fill:#D1D5D5;" d="M109.15,199.697c0,3.035-0.911,5.496-2.035,5.496H42.928c-1.125,0-2.037-2.461-2.037-5.496l0,0
			c0-3.036,0.912-5.497,2.037-5.497h64.187C108.239,194.199,109.15,196.66,109.15,199.697L109.15,199.697z"/>
		<path style="fill:#D1D5D5;" d="M109.15,227.848c0,3.035-1.207,5.496-2.697,5.496H21.391c-1.49,0-2.697-2.461-2.697-5.496l0,0
			c0-3.035,1.207-5.497,2.697-5.497h85.062C107.943,222.35,109.15,224.813,109.15,227.848L109.15,227.848z"/>
		<path style="fill:#D1D5D5;" d="M109.15,312.299c0-3.036-0.911-5.498-2.035-5.498H42.928c-1.125,0-2.037,2.462-2.037,5.498l0,0
			c0,3.033,0.912,5.495,2.037,5.495h64.187C108.239,317.794,109.15,315.332,109.15,312.299L109.15,312.299z"/>
		<path style="fill:#D1D5D5;" d="M109.15,284.147c0-3.035-1.207-5.497-2.697-5.497H21.391c-1.49,0-2.697,2.462-2.697,5.497l0,0
			c0,3.033,1.207,5.496,2.697,5.496h85.062C107.943,289.645,109.15,287.181,109.15,284.147L109.15,284.147z"/>
		<path style="fill:#D1D5D5;" d="M109.15,255.997c0,3.035-1.458,5.498-3.254,5.498H3.255c-1.797,0-3.255-2.463-3.255-5.498l0,0
			c0-3.035,1.458-5.496,3.255-5.496h102.641C107.692,250.501,109.15,252.962,109.15,255.997L109.15,255.997z"/>
	</g>
	<g>
		<path style="fill:#E2E5E7;" d="M512,368.806c0,12.15-9.85,22-22,22H147.723c-12.15,0-22-9.85-22-22V143.19c0-12.15,9.85-22,22-22
			H490c12.15,0,22,9.85,22,22V368.806L512,368.806z"/>
		<g>
			<path style="fill:#D1D5D5;" d="M480.247,315.91c0,2.448-2.711,4.434-6.056,4.434H355.194c-3.345,0-6.056-1.985-6.056-4.434
				v-0.168c0-2.446,2.711-4.431,6.056-4.431h118.997c3.345,0,6.056,1.984,6.056,4.431V315.91z"/>
			<path style="fill:#D1D5D5;" d="M480.247,332.922c0,2.45-2.711,4.434-6.056,4.434H355.194c-3.345,0-6.056-1.983-6.056-4.434
				v-0.165c0-2.449,2.711-4.434,6.056-4.434h118.997c3.345,0,6.056,1.984,6.056,4.434V332.922z"/>
			<path style="fill:#D1D5D5;" d="M480.247,349.938c0,2.447-2.711,4.431-6.056,4.431H355.194c-3.345,0-6.056-1.983-6.056-4.431
				v-0.167c0-2.45,2.711-4.435,6.056-4.435h118.997c3.345,0,6.056,1.984,6.056,4.435V349.938z"/>
		</g>
		<g>
			<g>
				<g>
					<g>
						<g>
							<polygon style="fill:#DF584C;" points="219.443,121.19 204.721,134.19 228.092,134.19 242.812,121.19 							"/>
							<polygon style="fill:#E2E5E7;" points="196.074,121.19 181.354,134.19 204.721,134.19 219.443,121.19 							"/>
							<polygon style="fill:#E2E5E7;" points="242.812,121.19 228.092,134.19 251.46,134.19 266.181,121.19 							"/>
							<polygon style="fill:#E2E5E7;" points="289.55,121.19 274.83,134.19 298.198,134.19 312.918,121.19 							"/>
							<polygon style="fill:#DF584C;" points="125.723,121.19 125.723,134.19 134.616,134.19 149.336,121.19 							"/>
							<polygon style="fill:#E2E5E7;" points="149.336,121.19 134.616,134.19 157.985,134.19 172.705,121.19 							"/>
							<polygon style="fill:#E2E5E7;" points="429.763,121.19 415.043,134.19 438.414,134.19 453.131,121.19 							"/>
							<polygon style="fill:#E2E5E7;" points="476.501,121.19 461.781,134.19 485.15,134.19 499.871,121.19 							"/>
							<polygon style="fill:#DF584C;" points="312.918,121.19 298.198,134.19 321.567,134.19 336.288,121.19 							"/>
							<polygon style="fill:#DF584C;" points="499.871,121.19 485.15,134.19 512,134.19 512,121.19 							"/>
							<polygon style="fill:#DF584C;" points="406.394,121.19 391.674,134.19 415.043,134.19 429.763,121.19 							"/>
							<polygon style="fill:#E2E5E7;" points="336.288,121.19 321.567,134.19 344.937,134.19 359.658,121.19 							"/>
							<g>
								<polygon style="fill:#2D404E;" points="266.181,121.19 251.46,134.19 274.83,134.19 289.55,121.19 								"/>
								<polygon style="fill:#2D404E;" points="172.705,121.19 157.985,134.19 181.354,134.19 196.074,121.19 								"/>
								<polygon style="fill:#2D404E;" points="453.131,121.19 438.414,134.19 461.781,134.19 476.501,121.19 								"/>
								<polygon style="fill:#2D404E;" points="359.658,121.19 344.937,134.19 368.305,134.19 383.025,121.19 								"/>
							</g>
							<polygon style="fill:#E2E5E7;" points="383.025,121.19 368.305,134.19 391.674,134.19 406.394,121.19 							"/>
						</g>
						<g>
							<polygon style="fill:#DF584C;" points="138.723,344 125.723,355.212 125.723,337.413 138.723,326.202 							"/>
							<polygon style="fill:#E2E5E7;" points="138.723,361.798 125.723,373.009 125.723,355.212 138.723,344 							"/>
							<polygon style="fill:#E2E5E7;" points="138.723,326.202 125.723,337.413 125.723,319.616 138.723,308.405 							"/>
							<polygon style="fill:#E2E5E7;" points="138.723,290.607 125.723,301.818 125.723,284.021 138.723,272.81 							"/>
							<polygon style="fill:#E2E5E7;" points="138.723,183.82 125.723,195.031 125.723,177.233 138.723,166.022 							"/>
							<polygon style="fill:#E2E5E7;" points="138.723,148.225 125.723,159.436 125.723,141.639 138.723,130.427 							"/>
							<polygon style="fill:#DF584C;" points="138.723,272.81 125.723,284.021 125.723,266.223 138.723,255.012 							"/>
							<polygon style="fill:#DF584C;" points="138.723,130.427 125.723,141.639 125.723,121.19 138.723,121.19 							"/>
							<polygon style="fill:#DF584C;" points="138.723,201.62 125.723,212.829 125.723,195.031 138.723,183.82 							"/>
							<polygon style="fill:#E2E5E7;" points="138.723,255.012 125.723,266.223 125.723,248.427 138.723,237.214 							"/>
							<g>
								<polygon style="fill:#2D404E;" points="138.723,308.405 125.723,319.616 125.723,301.818 138.723,290.607 								"/>
								<polygon style="fill:#2D404E;" points="138.723,390.809 125.723,390.81 125.723,373.009 138.723,361.798 								"/>
								<polygon style="fill:#2D404E;" points="138.723,166.022 125.723,177.233 125.723,159.436 138.723,148.225 								"/>
								<polygon style="fill:#2D404E;" points="138.723,237.214 125.723,248.427 125.723,230.626 138.723,219.417 								"/>
							</g>
							<polygon style="fill:#E2E5E7;" points="138.723,219.417 125.723,230.626 125.723,212.829 138.723,201.62 							"/>
						</g>
						<g>
							<polygon style="fill:#DF584C;" points="222.579,390.806 208.015,377.806 231.135,377.806 245.698,390.806 							"/>
							<polygon style="fill:#E2E5E7;" points="199.46,390.806 184.898,377.806 208.015,377.806 222.579,390.806 							"/>
							<polygon style="fill:#E2E5E7;" points="245.698,390.806 231.135,377.806 254.253,377.806 268.816,390.806 							"/>
							<polygon style="fill:#E2E5E7;" points="291.935,390.806 277.372,377.806 300.49,377.806 315.052,390.806 							"/>
							<polygon style="fill:#DF584C;" points="125.723,390.806 125.723,377.806 138.661,377.806 153.224,390.806 							"/>
							<polygon style="fill:#E2E5E7;" points="430.645,390.806 416.082,377.806 439.203,377.806 453.762,390.806 							"/>
							<polygon style="fill:#E2E5E7;" points="476.882,390.806 462.319,377.806 485.438,377.806 500,390.806 							"/>
							<polygon style="fill:#DF584C;" points="315.052,390.806 300.49,377.806 323.608,377.806 338.171,390.806 							"/>
							<polygon style="fill:#DF584C;" points="500,390.806 485.438,377.806 512,377.806 512,390.806 							"/>
							<polygon style="fill:#DF584C;" points="407.526,390.806 392.964,377.806 416.082,377.806 430.645,390.806 							"/>
							<polygon style="fill:#E2E5E7;" points="338.171,390.806 323.608,377.806 346.728,377.806 361.29,390.806 							"/>
							<g>
								<polygon style="fill:#2D404E;" points="268.816,390.806 254.253,377.806 277.372,377.806 291.935,390.806 								"/>
								<polygon style="fill:#2D404E;" points="176.342,390.806 161.78,377.806 184.898,377.806 199.46,390.806 								"/>
								<polygon style="fill:#2D404E;" points="453.762,390.806 439.203,377.806 462.319,377.806 476.882,390.806 								"/>
								<polygon style="fill:#2D404E;" points="361.29,390.806 346.728,377.806 369.845,377.806 384.408,390.806 								"/>
							</g>
							<polygon style="fill:#E2E5E7;" points="384.408,390.806 369.845,377.806 392.964,377.806 407.526,390.806 							"/>
						</g>
						<g>
							<polygon style="fill:#DF584C;" points="499,343.12 512,353.961 512,336.751 499,325.913 							"/>
							<polygon style="fill:#E2E5E7;" points="499,360.327 512,371.168 512,353.961 499,343.12 							"/>
							<polygon style="fill:#E2E5E7;" points="499,325.913 512,336.751 512,319.544 499,308.704 							"/>
							<polygon style="fill:#E2E5E7;" points="499,291.495 512,302.336 512,285.128 499,274.288 							"/>
							<polygon style="fill:#E2E5E7;" points="499,188.246 512,199.086 512,181.879 499,171.039 							"/>
							<polygon style="fill:#E2E5E7;" points="499,153.829 512,164.669 512,147.462 499,136.621 							"/>
							<polygon style="fill:#DF584C;" points="499,274.288 512,285.128 512,267.917 499,257.079 							"/>
							<polygon style="fill:#DF584C;" points="499,136.621 512,147.462 512,127.69 499,127.69 							"/>
							<polygon style="fill:#DF584C;" points="499,205.457 512,216.294 512,199.086 499,188.246 							"/>
							<polygon style="fill:#E2E5E7;" points="499,257.079 512,267.917 512,250.712 499,239.871 							"/>
							<g>
								<polygon style="fill:#2D404E;" points="499,308.704 512,319.544 512,302.336 499,291.495 								"/>
								<polygon style="fill:#2D404E;" points="499,388.378 512,388.379 512,371.168 499,360.327 								"/>
								<polygon style="fill:#2D404E;" points="499,171.039 512,181.879 512,164.669 499,153.829 								"/>
								<polygon style="fill:#2D404E;" points="499,239.871 512,250.712 512,233.503 499,222.665 								"/>
							</g>
							<polygon style="fill:#E2E5E7;" points="499,222.665 512,233.503 512,216.294 499,205.457 							"/>
						</g>
					</g>
				</g>
			</g>
		</g>
		<path style="fill:#D1D5D5;" d="M474.58,219.048c0,6.272-5.1,11.357-11.391,11.357h-40.34c-6.291,0-11.391-5.085-11.391-11.357
			v-49.697c0-6.272,5.1-11.357,11.391-11.357h40.34c6.291,0,11.391,5.085,11.391,11.357V219.048z"/>
	</g>
</g>
<g>
</g>
<g>
</g>
<g>
</g>
<g>
</g>
<g>
</g>
<g>
</g>
<g>
</g>
<g>
</g>
<g>
</g>
<g>
</g>
<g>
</g>
<g>
</g>
<g>
</g>
<g>
</g>
<g>
</g>
</svg>
